<?xml version="1.0" encoding="UTF-8"?>
<svg id="Lag_1" xmlns="http://www.w3.org/2000/svg" version="1.1" viewBox="0 0 48 48">
  <!-- Generator: Adobe Illustrator 30.0.0, SVG Export Plug-In . SVG Version: 2.1.1 Build 123)  -->
  <defs>
    <style>
      .st0 {
        fill: #1c2f4c;
      }
    </style>
  </defs>
  <g>
    <path class="st0" d="M9.65,12.04c-1.46,0-2.64-1.18-2.64-2.64s1.18-2.64,2.64-2.64h28.38c1.46,0,2.64,1.18,2.64,2.64s-1.18,2.64-2.64,2.64H9.65Z"/>
    <path class="st0" d="M38.02,7.26c1.18,0,2.14.96,2.14,2.14s-.96,2.14-2.14,2.14H9.65c-1.18,0-2.14-.96-2.14-2.14s.96-2.14,2.14-2.14h28.38M38.02,6.26H9.65c-1.73,0-3.14,1.41-3.14,3.14s1.41,3.14,3.14,3.14h28.38c1.73,0,3.14-1.41,3.14-3.14s-1.41-3.14-3.14-3.14h0Z"/>
  </g>
  <g>
    <path class="st0" d="M9.82,26.64c-1.46,0-2.64-1.18-2.64-2.64s1.19-2.64,2.64-2.64h28.38c1.46,0,2.64,1.18,2.64,2.64s-1.18,2.64-2.64,2.64H9.82Z"/>
    <path class="st0" d="M38.2,21.86c1.18,0,2.14.96,2.14,2.14s-.96,2.14-2.14,2.14H9.82c-1.18,0-2.14-.96-2.14-2.14s.96-2.14,2.14-2.14h28.38M38.2,20.86H9.82c-1.73,0-3.14,1.41-3.14,3.14s1.41,3.14,3.14,3.14h28.38c1.73,0,3.14-1.41,3.14-3.14s-1.41-3.14-3.14-3.14h0Z"/>
  </g>
  <g>
    <path class="st0" d="M9.8,41.24c-1.46,0-2.64-1.18-2.64-2.64s1.18-2.64,2.64-2.64h28.38c1.46,0,2.64,1.18,2.64,2.64s-1.18,2.64-2.64,2.64H9.8Z"/>
    <path class="st0" d="M38.18,36.46c1.18,0,2.14.96,2.14,2.14s-.96,2.14-2.14,2.14H9.8c-1.18,0-2.14-.96-2.14-2.14s.96-2.14,2.14-2.14h28.38M38.18,35.46H9.8c-1.73,0-3.14,1.41-3.14,3.14s1.41,3.14,3.14,3.14h28.38c1.73,0,3.14-1.41,3.14-3.14s-1.41-3.14-3.14-3.14h0Z"/>
  </g>
</svg>