<?xml version="1.0" encoding="UTF-8"?>
<svg id="Lag_1" data-name="Lag 1" xmlns="http://www.w3.org/2000/svg" viewBox="0 0 35.29 35.48">
  <defs>
    <style>
      .cls-1 {
        fill: #1c2f4c;
      }
    </style>
  </defs>
  <g>
    <path class="cls-1" d="M3.78,5.78c-1.46,0-2.64-1.18-2.64-2.64S2.32.5,3.78.5h28.38c1.46,0,2.64,1.18,2.64,2.64s-1.18,2.64-2.64,2.64H3.78Z"/>
    <path class="cls-1" d="M32.15,1c1.18,0,2.14.96,2.14,2.14s-.96,2.14-2.14,2.14H3.78c-1.18,0-2.14-.96-2.14-2.14s.96-2.14,2.14-2.14h28.38M32.15,0H3.78C2.05,0,.64,1.41.64,3.14s1.41,3.14,3.14,3.14h28.38c1.73,0,3.14-1.41,3.14-3.14s-1.41-3.14-3.14-3.14h0Z"/>
  </g>
  <g>
    <path class="cls-1" d="M3.16,20.38c-1.46,0-2.64-1.18-2.64-2.64s1.19-2.64,2.64-2.64h28.38c1.46,0,2.64,1.18,2.64,2.64s-1.18,2.64-2.64,2.64H3.16Z"/>
    <path class="cls-1" d="M31.54,15.6c1.18,0,2.14.96,2.14,2.14s-.96,2.14-2.14,2.14H3.16c-1.18,0-2.14-.96-2.14-2.14s.96-2.14,2.14-2.14h28.38M31.54,14.6H3.16C1.44,14.6.02,16.01.02,17.74s1.41,3.14,3.14,3.14h28.38c1.73,0,3.14-1.41,3.14-3.14s-1.41-3.14-3.14-3.14h0Z"/>
  </g>
  <g>
    <path class="cls-1" d="M3.14,34.98c-1.46,0-2.64-1.18-2.64-2.64s1.18-2.64,2.64-2.64h28.38c1.46,0,2.64,1.18,2.64,2.64s-1.18,2.64-2.64,2.64H3.14Z"/>
    <path class="cls-1" d="M31.52,30.2c1.18,0,2.14.96,2.14,2.14s-.96,2.14-2.14,2.14H3.14c-1.18,0-2.14-.96-2.14-2.14s.96-2.14,2.14-2.14h28.38M31.52,29.2H3.14c-1.73,0-3.14,1.41-3.14,3.14s1.41,3.14,3.14,3.14h28.38c1.73,0,3.14-1.41,3.14-3.14s-1.41-3.14-3.14-3.14h0Z"/>
  </g>
</svg>