<?xml version="1.0" encoding="UTF-8"?>
<svg id="Lag_1" data-name="Lag 1" xmlns="http://www.w3.org/2000/svg" viewBox="0 0 34.68 25.48">
  <defs>
    <style>
      .cls-1 {
        fill: #1c2f4c;
      }
    </style>
  </defs>
  <g>
    <path class="cls-1" d="M3.14,5.78C1.68,5.78.5,4.6.5,3.14S1.68.5,3.14.5h28.38c1.46,0,2.64,1.18,2.64,2.64s-1.18,2.64-2.64,2.64H3.14Z"/>
    <path class="cls-1" d="M31.52,1c1.18,0,2.14.96,2.14,2.14s-.96,2.14-2.14,2.14H3.14c-1.18,0-2.14-.96-2.14-2.14S1.96,1,3.14,1h28.38M31.52,0H3.14C1.41,0,0,1.41,0,3.14s1.41,3.14,3.14,3.14h28.38c1.73,0,3.14-1.41,3.14-3.14s-1.41-3.14-3.14-3.14h0Z"/>
  </g>
  <g>
    <path class="cls-1" d="M3.16,15.38c-1.46,0-2.64-1.18-2.64-2.64s1.19-2.64,2.64-2.64h28.38c1.46,0,2.64,1.18,2.64,2.64s-1.18,2.64-2.64,2.64H3.16Z"/>
    <path class="cls-1" d="M31.54,10.6c1.18,0,2.14.96,2.14,2.14s-.96,2.14-2.14,2.14H3.16c-1.18,0-2.14-.96-2.14-2.14s.96-2.14,2.14-2.14h28.38M31.54,9.6H3.16C1.44,9.6.02,11.01.02,12.74s1.41,3.14,3.14,3.14h28.38c1.73,0,3.14-1.41,3.14-3.14s-1.41-3.14-3.14-3.14h0Z"/>
  </g>
  <g>
    <path class="cls-1" d="M3.14,24.98c-1.46,0-2.64-1.18-2.64-2.64s1.18-2.64,2.64-2.64h28.38c1.46,0,2.64,1.18,2.64,2.64s-1.18,2.64-2.64,2.64H3.14Z"/>
    <path class="cls-1" d="M31.52,20.2c1.18,0,2.14.96,2.14,2.14s-.96,2.14-2.14,2.14H3.14c-1.18,0-2.14-.96-2.14-2.14s.96-2.14,2.14-2.14h28.38M31.52,19.2H3.14c-1.73,0-3.14,1.41-3.14,3.14s1.41,3.14,3.14,3.14h28.38c1.73,0,3.14-1.41,3.14-3.14s-1.41-3.14-3.14-3.14h0Z"/>
  </g>
</svg>